<svg version="1.1" xmlns="http://www.w3.org/2000/svg" xmlns:xlink="http://www.w3.org/1999/xlink" width="16" height="16" viewBox="0,0,256,256"><g fill="#00a65a" fill-rule="nonzero" stroke="none" stroke-width="1" stroke-linecap="butt" stroke-linejoin="miter" stroke-miterlimit="10" stroke-dasharray="" stroke-dashoffset="0" font-family="none" font-weight="none" font-size="none" text-anchor="none" style="mix-blend-mode: normal"><g transform="scale(16,16)"><path d="M16,8c0,4.41828 -3.58172,8 -8,8c-4.41828,0 -8,-3.58172 -8,-8c0,-4.41828 3.58172,-8 8,-8c4.41828,0 8,3.58172 8,8zM12.03,4.97c-0.14433,-0.14383 -0.34096,-0.22274 -0.54468,-0.21859c-0.20371,0.00415 -0.39697,0.091 -0.53532,0.24059l-3.473,4.425l-2.093,-2.094c-0.29551,-0.27536 -0.75601,-0.26723 -1.04162,0.01838c-0.28561,0.28561 -0.29374,0.74611 -0.01838,1.04162l2.646,2.647c0.14402,0.14376 0.34028,0.22283 0.54375,0.21906c0.20346,-0.00377 0.39666,-0.09006 0.53525,-0.23906l3.992,-4.99c0.2831,-0.29435 0.27865,-0.7611 -0.01,-1.05z"></path></g></g></svg>