<svg version="1.1" xmlns="http://www.w3.org/2000/svg" xmlns:xlink="http://www.w3.org/1999/xlink" width="16" height="16" viewBox="0,0,256,256"><g fill="#dd4b39" fill-rule="nonzero" stroke="none" stroke-width="1" stroke-linecap="butt" stroke-linejoin="miter" stroke-miterlimit="10" stroke-dasharray="" stroke-dashoffset="0" font-family="none" font-weight="none" font-size="none" text-anchor="none" style="mix-blend-mode: normal"><g transform="scale(16,16)"><path d="M16,8c0,4.41828 -3.58172,8 -8,8c-4.41828,0 -8,-3.58172 -8,-8c0,-4.41828 3.58172,-8 8,-8c4.41828,0 8,3.58172 8,8zM5.354,4.646c-0.19551,-0.19551 -0.51249,-0.19551 -0.708,0c-0.19551,0.19551 -0.19551,0.51249 0,0.708l2.647,2.646l-2.647,2.646c-0.19551,0.19551 -0.19551,0.51249 0,0.708c0.19551,0.19551 0.51249,0.19551 0.708,0l2.646,-2.647l2.646,2.647c0.19551,0.19551 0.51249,0.19551 0.708,0c0.19551,-0.19551 0.19551,-0.51249 0,-0.708l-2.647,-2.646l2.647,-2.646c0.19551,-0.19551 0.19551,-0.51249 0,-0.708c-0.19551,-0.19551 -0.51249,-0.19551 -0.708,0l-2.646,2.647z"></path></g></g></svg>